<svg xmlns="http://www.w3.org/2000/svg" viewBox="0 0 81.76 47.69"><defs><style>.cls-1{fill:#e0081a;}</style></defs><title>INS-Logo</title><g id="Capa_2" data-name="Capa 2"><g id="Capa_1-2" data-name="Capa 1"><g id="Capa_2-2" data-name="Capa 2"><g id="Capa_1-2-2" data-name="Capa 1-2"><path d="M23.12,12.32c0-.42-.16-.56-.67-.56h-.16v-.18h.3l1.24,0,1,0h.3v.18H25c-.5,0-.66.14-.66.56V17.2c0,.42.16.56.67.56h.16v.17h-.3l-1.24,0-1,0h-.29v-.17h.16c.51,0,.67-.14.67-.56Z"/><path d="M26.88,13.37a1.15,1.15,0,0,0-.66-.39h-.15v-.13h.13l.83,0,.51,0h.15L31,16.42V13.6c0-.44-.2-.62-.69-.62h-.16v-.14h.16l.81,0,.67,0h.09V13c-.46,0-.57.16-.57.55V18h-.16l-3.89-4.27v3.2c0,.67.16.85.73.85h.14v.15h-.16l-.85,0-.75,0h-.14v-.14c.58-.05.7-.14.7-.56Z"/><path d="M32.84,16.74a1.37,1.37,0,0,0,.49.67,1.82,1.82,0,0,0,1.11.33c.74,0,1.24-.38,1.24-.94s-.24-.64-1.14-1.06A4,4,0,0,1,33.29,15a1.19,1.19,0,0,1-.38-.89c0-.79.64-1.31,1.62-1.31a3.4,3.4,0,0,1,.95.13l.35,0a.11.11,0,0,0,.13-.07h.15l0,1.08H36A1.21,1.21,0,0,0,34.66,13c-.61,0-1,.29-1,.73s.23.59,1.06,1c1.06.49,1.69.93,1.69,1.74S35.64,18,34.51,18a4,4,0,0,1-.91-.11l-.31,0a.2.2,0,0,0-.2.1h-.15l0-.13c-.07-.4-.14-.76-.2-1Z"/><path d="M39.17,13.21h-1c-.61,0-.77.14-.81.75h-.15l0-1.21h.14a.75.75,0,0,0,.2.1.86.86,0,0,0,.23,0h3.76a.56.56,0,0,0,.43-.12h.14l0,1.22H42c0-.61-.2-.76-.81-.76h-1v4.12c0,.28.09.44.54.44h.13v.15h-.25l-1,0c-.11,0-.53,0-.81,0H38.5v-.14h.15c.39,0,.52-.11.52-.44Z"/><path d="M43.59,13.43c0-.33-.13-.45-.53-.45h-.13v-.13h.24l1,0,.79,0h.24V13h-.14c-.4,0-.52.12-.52.45v3.91c0,.33.13.44.53.44h.13v.14H45l-1,0c-.27,0-.53,0-.81,0h-.23v-.14h.13c.4,0,.53-.11.53-.44Z"/><path d="M48,13.21H47c-.61,0-.77.14-.81.75H46l0-1.21h.14a.75.75,0,0,0,.2.1.93.93,0,0,0,.23,0h3.76a.55.55,0,0,0,.43-.12h.13L51,14h-.14c-.06-.61-.21-.76-.81-.76H49v4.12c0,.28.08.44.54.44h.13v.15h-.25l-1,0c-.11,0-.53,0-.81,0h-.24v-.14h.15c.39,0,.52-.11.52-.44Z"/><path d="M52.4,13.43c0-.34-.13-.45-.54-.45h-.12v-.13H52l1,0,.8,0H54V13h-.13c-.41,0-.54.12-.54.45V16.3c0,1,.46,1.45,1.47,1.45s1.5-.49,1.5-1.38V13.54c0-.45-.1-.55-.54-.55h-.14v-.14h.15l.83,0c.23,0,.47,0,.66,0h.21V13H57.3c-.38,0-.53.11-.53.42v2.73c0,1.48-1,1.85-2.22,1.85-.55,0-2.16-.12-2.16-1.71Z"/><path d="M60.25,13.21h-1c-.6,0-.76.14-.81.75h-.14l0-1.21h.12a.81.81,0,0,0,.21.1.86.86,0,0,0,.23,0H62.6a.57.57,0,0,0,.43-.12h.14l0,1.22h-.14c0-.61-.2-.76-.81-.76h-1v4.12c0,.28.09.44.54.44h.13v.15h-.24l-1,0c-.12,0-.54,0-.81,0h-.24v-.14h.15c.39,0,.52-.11.52-.44Z"/><path d="M69.52,15.36A2.55,2.55,0,0,1,66.83,18a2.52,2.52,0,0,1-2.68-2.62,2.69,2.69,0,0,1,5.37,0Zm-4-1.69a3.89,3.89,0,0,0-.34,1.78c0,.75.18,2.3,1.69,2.3a1.32,1.32,0,0,0,1.23-.66,4.06,4.06,0,0,0,.33-1.74c0-1.49-.6-2.35-1.66-2.35a1.35,1.35,0,0,0-1.25.67Z"/><path d="M23.22,21.22a1.37,1.37,0,0,0-.8-.48h-.21v-.18h.17l1,0,.63,0h.17L28.32,25V21.51c0-.56-.25-.77-.87-.77h-.18v-.18h.2l1,0,.84,0h.12v.18c-.57,0-.72.2-.72.68V27h-.2l-4.9-5.32v4c0,.83.21,1.06.91,1.06h.18v.18h-.2l-1.07,0-.93,0h-.17v-.18c.72-.06.87-.18.87-.7Z"/><path d="M32.81,21.74h.29l1.67,4.15c.35.86.6.86.89.86v.15h-.23l-.94,0-.72,0h-.26v-.15c.22,0,.44,0,.44-.29a1.36,1.36,0,0,0-.12-.48L33.45,25H31.83l-.34.86a1.72,1.72,0,0,0-.11.5c0,.35.34.35.53.35v.15h-.18l-.73,0-.55,0h-.2v-.15c.54,0,.65-.12,1.05-1.15ZM32.63,23,32,24.74h1.37Z"/><path d="M41.3,25.87a9,9,0,0,0-.31,1A9.26,9.26,0,0,1,39.6,27a5.53,5.53,0,0,1-1.81-.28,2.33,2.33,0,0,1-1.49-2.27,2.61,2.61,0,0,1,1-2.07,3.08,3.08,0,0,1,2-.61l.72,0,.74,0h.38v1.1H41a.67.67,0,0,0-.3-.61A2.29,2.29,0,0,0,39.5,22c-1.43,0-2.13.74-2.13,2.26a2.15,2.15,0,0,0,2.24,2.42,2,2,0,0,0,1.07-.25,1.12,1.12,0,0,0,.48-.61Z"/><path d="M42.93,22.41c0-.33-.13-.44-.53-.44h-.13v-.14h.24l1,0,.79,0h.24V22H44.4c-.41,0-.53.11-.53.45v3.9c0,.34.13.45.53.45h.13v.14h-.24l-1,0-.81,0h-.23v-.14h.13c.4,0,.53-.11.53-.45Z"/><path d="M50.91,24.34A2.54,2.54,0,0,1,48.21,27a2.63,2.63,0,1,1,0-5.25A2.55,2.55,0,0,1,50.91,24.34Zm-4-1.69a4,4,0,0,0-.33,1.78c0,.75.18,2.3,1.68,2.3a1.34,1.34,0,0,0,1.24-.66,4.06,4.06,0,0,0,.33-1.74c0-1.49-.61-2.35-1.66-2.35a1.36,1.36,0,0,0-1.26.67Z"/><path d="M52.66,22.35A1,1,0,0,0,52,22h-.16v-.14H52l.84,0,.5,0h.14l3.28,3.56v-2.8c0-.45-.21-.62-.7-.62h-.15v-.14h.16l.81,0,.67,0h.09V22c-.45,0-.57.16-.57.55V27h-.16L53,22.7v3.2c0,.67.15.85.72.85h.14v.15h-.16l-.85,0-.75,0H52v-.15c.57-.05.69-.14.69-.55Z"/><path d="M60.69,21.74H61l1.67,4.15c.35.86.59.86.88.86v.15h-.22l-1,0-.71,0h-.27v-.15c.23,0,.45,0,.45-.29a1.36,1.36,0,0,0-.12-.48L61.32,25H59.71l-.34.86a1.45,1.45,0,0,0-.11.5c0,.35.33.35.52.35v.15H59.6l-.73,0-.54,0h-.2v-.15c.54,0,.64-.12,1-1.15ZM60.51,23l-.69,1.74h1.37Z"/><path d="M65.07,22.41c0-.33-.13-.44-.53-.44h-.13v-.14h.24l1,0,.81,0h.24V22h-.13c-.41,0-.54.11-.54.45v3.82c0,.29.14.37.66.37a1.33,1.33,0,0,0,1.46-.78h.15L67.9,26.9h-.16l-2,0-1.18,0h-.2v-.13h.13c.4,0,.53-.11.53-.44Z"/><path d="M71.65,22.43c0-.33-.13-.44-.53-.44H71v-.15l1.12-.08c.37,0,.76,0,1,0a3.79,3.79,0,0,1,2.91.87,2.12,2.12,0,0,1,.59,1.53,2.76,2.76,0,0,1-.79,2,3.23,3.23,0,0,1-2.44.8l-1,0-1.14,0H71v-.14h.15c.41,0,.53-.11.53-.44Zm.94,3.76c0,.37.14.45.78.45,1.52,0,2.16-.67,2.16-2.24C75.53,22,73.8,22,73.31,22a6.53,6.53,0,0,0-.73,0Z"/><path d="M78.17,22.4c0-.33-.13-.43-.54-.43H77.5v-.14h.34l1.5,0,1.63,0h.34l0,1.11h-.14c0-.58-.28-.81-.88-.81H79.1v1.95h1a.62.62,0,0,0,.68-.55v-.05H81V25h-.14c-.07-.48-.32-.67-.92-.67h-.83v1.78a.39.39,0,0,0,.33.44h1a1.22,1.22,0,0,0,1.21-.76h.16l-.36,1.08-1.84,0-1.84,0H77.5v-.15h.14c.4,0,.53-.11.53-.44Z"/><path d="M22.51,34.42a1.74,1.74,0,0,0,.61.83,2.28,2.28,0,0,0,1.39.42c.92,0,1.55-.49,1.55-1.19,0-.51-.31-.79-1.42-1.32a5,5,0,0,1-1.57-1,1.48,1.48,0,0,1-.47-1.1c0-1,.81-1.65,2-1.65a5.33,5.33,0,0,1,1.19.16,2.24,2.24,0,0,0,.44.07.17.17,0,0,0,.17-.09h.18l0,1.35h-.15a1.49,1.49,0,0,0-1.67-1.19c-.78,0-1.28.37-1.28.91s.29.74,1.32,1.22C26.16,32.45,27,33,27,34S26,36,24.6,36a4.94,4.94,0,0,1-1.14-.14l-.39,0a.25.25,0,0,0-.25.12h-.19l0-.15c-.09-.5-.18-1-.26-1.27Z"/><path d="M30.35,30.72h.29l1.67,4.14c.35.87.59.87.89.87v.15H33l-.94,0c-.24,0-.41,0-.72,0h-.26v-.15c.22,0,.44,0,.44-.29a1.31,1.31,0,0,0-.12-.48L31,34H29.37l-.34.86a1.72,1.72,0,0,0-.11.5c0,.35.33.35.52.35v.15h-.18l-.73,0-.54,0h-.2v-.15c.54,0,.64-.13,1.05-1.15ZM30.17,32l-.68,1.74h1.37Z"/><path d="M34.73,31.39c0-.33-.13-.44-.54-.44h-.13v-.14h.24l1,0c.12,0,.53,0,.8,0h.24V31h-.13c-.4,0-.53.11-.53.44v3.82c0,.3.14.37.65.37.81,0,1.11-.15,1.46-.78h.15l-.36,1.09h-.17c-.17,0-1.26,0-2,0-.4,0-1,0-1.17,0h-.21v-.14h.13c.41,0,.54-.11.54-.44Z"/><path d="M39.17,31.39c0-.34-.13-.44-.53-.44h-.13v-.14h.24l1,0,.81,0h.24V31h-.14c-.4,0-.53.11-.53.44v2.88c0,1,.46,1.44,1.46,1.44s1.51-.49,1.51-1.37V31.51c0-.45-.11-.55-.55-.55H42.4v-.14h.17l.83,0c.23,0,.47,0,.67,0h.2V31H44.1c-.39,0-.54.11-.54.42v2.73c0,1.48-1,1.85-2.22,1.85-.55,0-2.16-.12-2.16-1.71Z"/><path d="M45.69,31.42c0-.33-.12-.44-.52-.44H45v-.15l1.13-.08c.36,0,.76,0,1,0a3.79,3.79,0,0,1,2.91.87,2.12,2.12,0,0,1,.59,1.53,2.74,2.74,0,0,1-.79,2,3.21,3.21,0,0,1-2.44.81l-1,0-1.14,0H45v-.14h.15c.41,0,.53-.11.53-.44Zm1,3.76c0,.37.14.45.78.45,1.51,0,2.16-.67,2.16-2.24C49.58,31,47.85,31,47.36,31a6.53,6.53,0,0,0-.73,0Z"/><path d="M0,10c4.45-3,12-2.4,15.9.31V0H0Z"/><path d="M.17,17.28c0,5.27,11.23,4.34,15.56,7.2V18.17c0-1.9-3.53-6-8.69-6C2.53,12.17.17,14.56.17,17.28Z"/><path d="M0,40.1v7.59H15.9V40.22A16,16,0,0,1,0,40.1Z"/><path d="M7.83,27.3C4.7,26.68,1.46,25.67,0,24.37V33c0,2.39,3.21,4.87,8.51,4.87,2.29,0,7.15-.54,7.15-4.69S10.13,27.76,7.83,27.3Z"/><circle class="cls-1" cx="7.95" cy="17.28" r="2.52"/></g></g></g></g></svg>