<svg xmlns="http://www.w3.org/2000/svg" width="820" height="548" viewBox="0 0 820 548">
  <g id="Grupo_162470" data-name="Grupo 162470" transform="translate(-390 -23487)">
    <g id="Grupo_88860" data-name="Grupo 88860" transform="translate(0 327)">
      <g id="Grupo_88859" data-name="Grupo 88859" transform="translate(11.592 48)">
        <g id="vw0tez.tif" transform="matrix(-0.588, 0.809, -0.809, -0.588, 697.948, 23224.773)">
          <g id="Grupo_88565" data-name="Grupo 88565" transform="translate(0)">
            <path id="Trazado_140945" data-name="Trazado 140945" d="M0,16.741c.3.018.6.052.9.053,11.92,0,282.034,2.256,293.954,2.256h1.082V0l43.871,34.515-43.8,34.463V50.067c-.36-.034-.62-.081-.879-.081C283,49.983,12.67,47.73.539,47.732c-.18,0-.36.034-.539.052Z" fill="#12263f"/>
          </g>
        </g>
        <g id="vw0tez.tif-2" data-name="vw0tez.tif" transform="translate(1083.561 23483.348) rotate(-129)">
          <g id="Grupo_88565-2" data-name="Grupo 88565" transform="translate(0 0)">
            <path id="Trazado_140945-2" data-name="Trazado 140945" d="M0,15.835c.284.017.568.05.853.05,11.275,0,266.77,2.133,278.044,2.133h1.023V0l41.5,32.647-41.431,32.6V47.357c-.34-.033-.586-.077-.831-.077-11.475,0-267.169-2.134-278.644-2.132-.17,0-.34.032-.51.049Z" fill="#12263f"/>
          </g>
        </g>
        <text id="REFERENCIA" transform="matrix(0.588, -0.809, 0.809, 0.588, 584.782, 23335.961)" fill="#fff" font-size="20" font-family="Roboto-Black, Roboto" font-weight="800"><tspan x="-58.804" y="0">REFERENCIA</tspan></text>
        <text id="CONTRAREFERENCIA" transform="translate(1005.981 23343.537) rotate(51)" fill="#fff" font-size="18" font-family="Roboto-Black, Roboto" font-weight="800"><tspan x="-88.91" y="0">CONTRAREFERENCIA</tspan></text>
        <line id="Línea_1885" data-name="Línea 1885" y2="94" transform="translate(800 23256)" fill="none" stroke="#9f9f9f" stroke-width="2"/>
        <line id="Línea_1886" data-name="Línea 1886" x1="87" y2="54" transform="translate(637 23498.5)" fill="none" stroke="#9f9f9f" stroke-width="2"/>
        <line id="Línea_1887" data-name="Línea 1887" x2="87" y2="54" transform="translate(866 23498.5)" fill="none" stroke="#9f9f9f" stroke-width="2"/>
        <rect id="Rectángulo_33160" data-name="Rectángulo 33160" width="168" height="165" rx="28" transform="translate(715 23345)" fill="#ff9d00"/>
        <text id="APOYO_Dx_ESPECIALIZADO" data-name="APOYO Dx
ESPECIALIZADO" transform="translate(800 23423)" fill="#12263f" font-size="16" font-family="Roboto-Black, Roboto" font-weight="800"><tspan x="-37.727" y="0">APOYO Dx</tspan><tspan x="-60.176" y="20">ESPECIALIZADO</tspan></text>
        <rect id="Rectángulo_33163" data-name="Rectángulo 33163" width="152" height="149" rx="28" transform="translate(724 23112)" fill="#bcafe3"/>
        <text id="MÉDICO_GENERAL" data-name="MÉDICO
GENERAL" transform="translate(801 23186)" fill="#12263f" font-size="18" font-family="Roboto-Black, Roboto" font-weight="800"><tspan x="-33.579" y="0">MÉDICO</tspan><tspan x="-39.406" y="25">GENERAL</tspan></text>
        <rect id="Rectángulo_33161" data-name="Rectángulo 33161" width="152" height="149" rx="28" transform="translate(953 23511)" fill="#00bcd4"/>
        <rect id="Rectángulo_33162" data-name="Rectángulo 33162" width="152" height="149" rx="28" transform="translate(495 23511)" fill="#81d4fa"/>
        <text id="MÉDICO_ESPECIALISTA" data-name="MÉDICO
ESPECIALISTA" transform="translate(568 23579)" fill="#12263f" font-size="18" font-family="Roboto-Black, Roboto" font-weight="800"><tspan x="-33.579" y="0">MÉDICO</tspan><tspan x="-60.899" y="25">ESPECIALISTA</tspan></text>
        <text id="IPS_MAYOR_NIVEL_DE_COMPLEJIDAD" data-name="IPS MAYOR
NIVEL DE
COMPLEJIDAD" transform="translate(1028 23565)" fill="#12263f" font-size="18" font-family="Roboto-Black, Roboto" font-weight="800"><tspan x="-47.496" y="0">IPS MAYOR</tspan><tspan x="-37.991" y="25">NIVEL DE</tspan><tspan x="-61.229" y="50">COMPLEJIDAD</tspan></text>
      </g>
    </g>
    <rect id="Rectángulo_33164" data-name="Rectángulo 33164" width="820" height="548" transform="translate(390 23487)" fill="none"/>
  </g>
</svg>
