<svg xmlns="http://www.w3.org/2000/svg" width="820" height="548" viewBox="0 0 820 548">
  <g id="Grupo_162478" data-name="Grupo 162478" transform="translate(-390 -23487)">
    <g id="vw0tez.tif" transform="matrix(-0.588, 0.809, -0.809, -0.588, 709.54, 23599.773)">
      <g id="Grupo_88565" data-name="Grupo 88565" transform="translate(0)">
        <path id="Trazado_140945" data-name="Trazado 140945" d="M0,16.741c.3.018.6.052.9.053,11.92,0,282.034,2.256,293.954,2.256h1.082V0l43.871,34.515-43.8,34.463V50.067c-.36-.034-.62-.081-.879-.081C283,49.983,12.67,47.73.539,47.732c-.18,0-.36.034-.539.052Z" fill="#12263f"/>
      </g>
    </g>
    <g id="vw0tez.tif-2" data-name="vw0tez.tif" transform="translate(1095.152 23858.348) rotate(-129)">
      <g id="Grupo_88565-2" data-name="Grupo 88565" transform="translate(0 0)">
        <path id="Trazado_140945-2" data-name="Trazado 140945" d="M0,15.835c.284.017.568.05.853.05,11.275,0,266.77,2.133,278.044,2.133h1.023V0l41.5,32.647-41.431,32.6V47.357c-.34-.033-.586-.077-.831-.077-11.475,0-267.169-2.134-278.644-2.132-.17,0-.34.032-.51.049Z" fill="#12263f"/>
      </g>
    </g>
    <path id="Trazado_142502" data-name="Trazado 142502" d="M-52.446-5.029H-54.3V0h-3.428V-14.219h5.6A6.246,6.246,0,0,1-48.179-13.1a3.8,3.8,0,0,1,1.426,3.17,4.616,4.616,0,0,1-.6,2.458,4.263,4.263,0,0,1-1.88,1.58l2.969,5.741V0h-3.672ZM-54.3-7.666h2.168a1.946,1.946,0,0,0,1.47-.514,1.987,1.987,0,0,0,.493-1.434,2.01,2.01,0,0,0-.5-1.444,1.928,1.928,0,0,0-1.465-.524H-54.3Zm18.438,1.631h-5.391v3.4h6.367V0h-9.795V-14.219h9.814v2.646h-6.387v3h5.391Zm11.328.371h-5.527V0h-3.428V-14.219h9.512v2.646h-6.084V-8.3h5.527Zm10.8-.371h-5.391v3.4h6.367V0h-9.795V-14.219h9.814v2.646h-6.387v3h5.391Zm7.656,1.006H-7.935V0h-3.428V-14.219h5.6A6.246,6.246,0,0,1-1.812-13.1,3.8,3.8,0,0,1-.386-9.926a4.616,4.616,0,0,1-.6,2.458,4.263,4.263,0,0,1-1.88,1.58L.1-.147V0H-3.569ZM-7.935-7.666h2.168A1.946,1.946,0,0,0-4.3-8.18,1.987,1.987,0,0,0-3.8-9.614a2.01,2.01,0,0,0-.5-1.444,1.928,1.928,0,0,0-1.465-.524H-7.935ZM10.5-6.035H5.112v3.4h6.367V0H1.685V-14.219H11.5v2.646H5.112v3H10.5ZM24.751,0H21.343L16.3-8.848V0H12.876V-14.219H16.3l5.029,8.848v-8.848h3.418ZM38.423-4.814a5.193,5.193,0,0,1-.8,2.622A4.833,4.833,0,0,1,35.566-.43,7,7,0,0,1,32.544.2,5.584,5.584,0,0,1,28.13-1.631a7.54,7.54,0,0,1-1.611-5.156v-.7a8.607,8.607,0,0,1,.728-3.657,5.513,5.513,0,0,1,2.095-2.422,5.844,5.844,0,0,1,3.164-.854,6.129,6.129,0,0,1,4.16,1.362,5.383,5.383,0,0,1,1.787,3.755H35.034a2.547,2.547,0,0,0-.654-1.865,2.691,2.691,0,0,0-1.875-.566,2.048,2.048,0,0,0-1.875.957A6.151,6.151,0,0,0,30-7.725v1.006a6.806,6.806,0,0,0,.571,3.252,2.091,2.091,0,0,0,1.968.977,2.632,2.632,0,0,0,1.807-.557,2.363,2.363,0,0,0,.664-1.768ZM43.7,0H40.278V-14.219H43.7ZM54.331-2.656h-4.7L48.813,0H45.151l5.215-14.219h3.223L58.843,0H55.161ZM50.454-5.3h3.057l-1.533-4.932Z" transform="matrix(0.588, -0.809, 0.809, 0.588, 596.374, 23710.961)" fill="#fff"/>
    <path id="Trazado_142503" data-name="Trazado 142503" d="M-77.59-4.333a4.673,4.673,0,0,1-.721,2.36,4.35,4.35,0,0,1-1.85,1.586,6.3,6.3,0,0,1-2.72.563,5.025,5.025,0,0,1-3.973-1.644A6.786,6.786,0,0,1-88.3-6.108v-.633a7.746,7.746,0,0,1,.655-3.292,4.961,4.961,0,0,1,1.885-2.18,5.26,5.26,0,0,1,2.848-.769,5.516,5.516,0,0,1,3.744,1.226,4.844,4.844,0,0,1,1.608,3.379H-80.64a2.292,2.292,0,0,0-.589-1.679,2.422,2.422,0,0,0-1.687-.51A1.843,1.843,0,0,0-84.6-9.7a5.536,5.536,0,0,0-.562,2.751v.905a6.126,6.126,0,0,0,.514,2.927,1.882,1.882,0,0,0,1.771.879,2.369,2.369,0,0,0,1.626-.5,2.126,2.126,0,0,0,.6-1.591Zm12.3-1.8a7.546,7.546,0,0,1-.694,3.313A5.132,5.132,0,0,1-67.961-.6a5.494,5.494,0,0,1-2.914.778,5.572,5.572,0,0,1-2.9-.751,5.123,5.123,0,0,1-1.973-2.149,7.329,7.329,0,0,1-.743-3.208v-.721a7.58,7.58,0,0,1,.69-3.318,5.119,5.119,0,0,1,1.978-2.219,5.533,5.533,0,0,1,2.931-.782,5.479,5.479,0,0,1,2.9.773A5.211,5.211,0,0,1-66.01-10a7.362,7.362,0,0,1,.716,3.274Zm-3.138-.536a5.381,5.381,0,0,0-.637-2.9,2.044,2.044,0,0,0-1.824-.989q-2.32,0-2.452,3.48l-.009.94a5.535,5.535,0,0,0,.624,2.892,2.041,2.041,0,0,0,1.854,1.011,2.016,2.016,0,0,0,1.8-.993,5.383,5.383,0,0,0,.642-2.856ZM-53.016,0h-3.067l-4.535-7.963V0H-63.7V-12.8h3.085l4.526,7.963V-12.8h3.076Zm11.742-10.415h-3.841V0H-48.2V-10.415H-51.97V-12.8h10.7Zm6.056,5.889h-1.67V0h-3.085V-12.8h5.036a5.621,5.621,0,0,1,3.56,1.01,3.421,3.421,0,0,1,1.283,2.853,4.155,4.155,0,0,1-.541,2.213A3.837,3.837,0,0,1-32.326-5.3l2.672,5.167V0h-3.3ZM-36.888-6.9h1.951a1.751,1.751,0,0,0,1.323-.463,1.788,1.788,0,0,0,.444-1.291,1.809,1.809,0,0,0-.448-1.3,1.735,1.735,0,0,0-1.318-.471h-1.951Zm15.926,4.509h-4.228L-25.928,0h-3.3l4.693-12.8h2.9L-16.9,0h-3.313Zm-3.489-2.382H-21.7l-1.38-4.438Zm13.236.246h-1.67V0H-15.97V-12.8h5.036a5.621,5.621,0,0,1,3.56,1.01A3.421,3.421,0,0,1-6.091-8.934a4.155,4.155,0,0,1-.541,2.213A3.837,3.837,0,0,1-8.323-5.3L-5.651-.132V0h-3.3ZM-12.885-6.9h1.951a1.751,1.751,0,0,0,1.323-.463,1.788,1.788,0,0,0,.444-1.291,1.809,1.809,0,0,0-.448-1.3,1.735,1.735,0,0,0-1.318-.471h-1.951ZM3.709-5.432H-1.143v3.059h5.73V0H-4.228V-12.8H4.605v2.382H-1.143v2.7H3.709ZM13.9-5.1H8.93V0H5.845V-12.8h8.561v2.382H8.93v2.944H13.9Zm9.721-.334H18.773v3.059H24.5V0H15.688V-12.8h8.833v2.382H18.773v2.7h4.852Zm6.891.905h-1.67V0H25.761V-12.8H30.8a5.621,5.621,0,0,1,3.56,1.01A3.421,3.421,0,0,1,35.64-8.934,4.155,4.155,0,0,1,35.1-6.721,3.837,3.837,0,0,1,33.407-5.3L36.079-.132V0h-3.3ZM28.846-6.9H30.8a1.751,1.751,0,0,0,1.323-.463,1.788,1.788,0,0,0,.444-1.291,1.809,1.809,0,0,0-.448-1.3,1.735,1.735,0,0,0-1.318-.471H28.846ZM45.439-5.432H40.588v3.059h5.73V0H37.5V-12.8h8.833v2.382H40.588v2.7h4.852ZM58.263,0H55.2L50.66-7.963V0H47.575V-12.8H50.66l4.526,7.963V-12.8h3.076Zm12.3-4.333a4.673,4.673,0,0,1-.721,2.36A4.35,4.35,0,0,1,68-.387a6.3,6.3,0,0,1-2.72.563A5.025,5.025,0,0,1,61.3-1.468a6.786,6.786,0,0,1-1.45-4.641v-.633a7.746,7.746,0,0,1,.655-3.292,4.961,4.961,0,0,1,1.885-2.18,5.26,5.26,0,0,1,2.848-.769,5.516,5.516,0,0,1,3.744,1.226,4.844,4.844,0,0,1,1.608,3.379H67.518a2.292,2.292,0,0,0-.589-1.679,2.422,2.422,0,0,0-1.687-.51,1.843,1.843,0,0,0-1.687.861,5.536,5.536,0,0,0-.562,2.751v.905a6.126,6.126,0,0,0,.514,2.927,1.882,1.882,0,0,0,1.771.879,2.369,2.369,0,0,0,1.626-.5,2.126,2.126,0,0,0,.6-1.591ZM75.313,0H72.237V-12.8h3.076Zm9.571-2.391H80.657L79.919,0h-3.3l4.693-12.8h2.9L88.945,0H85.632ZM81.4-4.772h2.751l-1.38-4.438Z" transform="translate(1017.573 23718.537) rotate(51)" fill="#fff"/>
    <path id="Trazado_142504" data-name="Trazado 142504" d="M0,0V94" transform="translate(811.592 23631)" fill="none" stroke="#9f9f9f" stroke-width="2"/>
    <path id="Trazado_142505" data-name="Trazado 142505" d="M87,0,0,54" transform="translate(648.592 23873.5)" fill="none" stroke="#9f9f9f" stroke-width="2"/>
    <path id="Trazado_142506" data-name="Trazado 142506" d="M0,0,87,54" transform="translate(877.592 23873.5)" fill="none" stroke="#9f9f9f" stroke-width="2"/>
    <path id="Trazado_142507" data-name="Trazado 142507" d="M28,0H140a28,28,0,0,1,28,28V137a28,28,0,0,1-28,28H28A28,28,0,0,1,0,137V28A28,28,0,0,1,28,0Z" transform="translate(726.592 23720)" fill="#ff9d00"/>
    <path id="Trazado_142508" data-name="Trazado 142508" d="M-30.406-2.125h-3.758L-34.82,0h-2.93l4.172-11.375H-31L-26.8,0h-2.945Zm-3.1-2.117h2.445l-1.227-3.945Zm10.281.383V0h-2.742V-11.375h4.539a5.287,5.287,0,0,1,2.309.48,3.621,3.621,0,0,1,1.555,1.367,3.734,3.734,0,0,1,.551,2.012,3.291,3.291,0,0,1-1.191,2.66,4.943,4.943,0,0,1-3.27,1Zm0-2.117h1.8a1.7,1.7,0,0,0,1.215-.4A1.48,1.48,0,0,0-19.8-7.5a1.83,1.83,0,0,0-.43-1.273A1.522,1.522,0,0,0-21.4-9.258h-1.828Zm17.3.523a6.708,6.708,0,0,1-.617,2.945A4.561,4.561,0,0,1-8.293-.535a4.884,4.884,0,0,1-2.59.691,4.953,4.953,0,0,1-2.578-.668,4.554,4.554,0,0,1-1.754-1.91,6.515,6.515,0,0,1-.66-2.852v-.641a6.737,6.737,0,0,1,.613-2.949A4.55,4.55,0,0,1-13.5-10.836a4.918,4.918,0,0,1,2.605-.7,4.87,4.87,0,0,1,2.578.688A4.632,4.632,0,0,1-6.559-8.887a6.544,6.544,0,0,1,.637,2.91ZM-8.711-5.93A4.783,4.783,0,0,0-9.277-8.5,1.817,1.817,0,0,0-10.9-9.383q-2.062,0-2.18,3.094l-.008.836a4.92,4.92,0,0,0,.555,2.57,1.814,1.814,0,0,0,1.648.9,1.792,1.792,0,0,0,1.6-.883,4.785,4.785,0,0,0,.57-2.539ZM-.68-6.437l2.094-4.937H4.375L.711-4.086V0H-2.07V-4.086l-3.656-7.289h2.945Zm15.289.984a6.708,6.708,0,0,1-.617,2.945A4.561,4.561,0,0,1,12.238-.535a4.884,4.884,0,0,1-2.59.691A4.953,4.953,0,0,1,7.07-.512a4.554,4.554,0,0,1-1.754-1.91,6.515,6.515,0,0,1-.66-2.852v-.641A6.737,6.737,0,0,1,5.27-8.863a4.55,4.55,0,0,1,1.758-1.973,4.918,4.918,0,0,1,2.605-.7,4.87,4.87,0,0,1,2.578.688,4.632,4.632,0,0,1,1.762,1.957,6.544,6.544,0,0,1,.637,2.91ZM11.82-5.93A4.783,4.783,0,0,0,11.254-8.5a1.817,1.817,0,0,0-1.621-.879q-2.062,0-2.18,3.094l-.008.836A4.92,4.92,0,0,0,8-2.883a1.814,1.814,0,0,0,1.648.9,1.792,1.792,0,0,0,1.6-.883,4.785,4.785,0,0,0,.57-2.539ZM20.008,0V-11.375h3.664a5.39,5.39,0,0,1,2.711.684,4.805,4.805,0,0,1,1.879,1.93,5.826,5.826,0,0,1,.684,2.793v.523a5.86,5.86,0,0,1-.66,2.8A4.826,4.826,0,0,1,26.426-.707,5.271,5.271,0,0,1,23.75,0ZM22.75-9.258v7.148H23.7a2.133,2.133,0,0,0,1.813-.84,4.116,4.116,0,0,0,.633-2.5v-.492a4.082,4.082,0,0,0-.633-2.484,2.17,2.17,0,0,0-1.844-.836ZM33.656-6.125l1.227-2.328h2.734L35.391-4.336,37.727,0h-2.75L33.648-2.5,32.344,0H29.578l2.344-4.336L29.7-8.453h2.766Zm-85.918,21.3h-4.312v2.719h5.094V20h-7.836V8.625h7.852v2.117h-5.109v2.4h4.313Zm7.766,1.8a1.127,1.127,0,0,0-.426-.937,5.292,5.292,0,0,0-1.5-.7,14.353,14.353,0,0,1-1.75-.7,3.314,3.314,0,0,1-2.211-2.984A2.676,2.676,0,0,1-49.828,10,3.562,3.562,0,0,1-48.27,8.871,6.065,6.065,0,0,1-46,8.469a5.305,5.305,0,0,1,2.2.438,3.482,3.482,0,0,1,1.512,1.246A3.254,3.254,0,0,1-41.754,12h-2.734a1.375,1.375,0,0,0-.426-1.078,1.66,1.66,0,0,0-1.152-.383,1.872,1.872,0,0,0-1.16.324,1,1,0,0,0-.426.824,1,1,0,0,0,.469.793,5.911,5.911,0,0,0,1.648.734,10.1,10.1,0,0,1,1.938.816,3.256,3.256,0,0,1,1.844,2.93A2.778,2.778,0,0,1-42.879,19.3a5,5,0,0,1-3.086.852,6.122,6.122,0,0,1-2.5-.5A3.775,3.775,0,0,1-50.156,18.3a3.542,3.542,0,0,1-.566-1.988h2.75A1.744,1.744,0,0,0-47.5,17.66a2.234,2.234,0,0,0,1.535.434,1.765,1.765,0,0,0,1.074-.293A.967.967,0,0,0-44.5,16.977Zm6.891-.836V20h-2.742V8.625h4.539a5.287,5.287,0,0,1,2.309.48,3.621,3.621,0,0,1,1.555,1.367,3.734,3.734,0,0,1,.551,2.012,3.291,3.291,0,0,1-1.191,2.66,4.943,4.943,0,0,1-3.27,1Zm0-2.117h1.8a1.7,1.7,0,0,0,1.215-.4,1.48,1.48,0,0,0,.418-1.125,1.83,1.83,0,0,0-.43-1.273,1.522,1.522,0,0,0-1.172-.484h-1.828Zm14.727,1.148h-4.312v2.719H-22.1V20h-7.836V8.625h7.852v2.117h-5.109v2.4h4.313Zm11.1.977a4.154,4.154,0,0,1-.641,2.1,3.866,3.866,0,0,1-1.645,1.41,5.6,5.6,0,0,1-2.418.5A4.467,4.467,0,0,1-20.012,18.7,6.032,6.032,0,0,1-21.3,14.57v-.562a6.885,6.885,0,0,1,.582-2.926,4.41,4.41,0,0,1,1.676-1.937,4.676,4.676,0,0,1,2.531-.684,4.9,4.9,0,0,1,3.328,1.09,4.306,4.306,0,0,1,1.43,3h-2.734a2.037,2.037,0,0,0-.523-1.492,2.153,2.153,0,0,0-1.5-.453,1.638,1.638,0,0,0-1.5.766,4.921,4.921,0,0,0-.5,2.445v.8a5.445,5.445,0,0,0,.457,2.6,1.672,1.672,0,0,0,1.574.781,2.106,2.106,0,0,0,1.445-.445,1.89,1.89,0,0,0,.531-1.414ZM-7.559,20h-2.734V8.625h2.734ZM.949,17.875H-2.809L-3.465,20h-2.93L-2.223,8.625H.355L4.559,20H1.613Zm-3.1-2.117H.293L-.934,11.813ZM8.129,17.891H12.9V20H5.387V8.625H8.129ZM16.98,20H14.246V8.625H16.98Zm4.984-2.109H27.4V20H18.543V18.555l5.422-7.812H18.512V8.625h8.836v1.406Zm13.242-.016H31.449L30.793,20h-2.93L32.035,8.625h2.578L38.816,20H35.871Zm-3.1-2.117h2.445l-1.227-3.945ZM39.645,20V8.625h3.664a5.39,5.39,0,0,1,2.711.684,4.805,4.805,0,0,1,1.879,1.93,5.826,5.826,0,0,1,.684,2.793v.523a5.86,5.86,0,0,1-.66,2.8,4.826,4.826,0,0,1-1.859,1.938A5.271,5.271,0,0,1,43.387,20Zm2.742-9.258v7.148h.953a2.133,2.133,0,0,0,1.813-.84,4.116,4.116,0,0,0,.633-2.5v-.492a4.082,4.082,0,0,0-.633-2.484,2.17,2.17,0,0,0-1.844-.836Zm17.234,3.8A6.708,6.708,0,0,1,59,17.492a4.561,4.561,0,0,1-1.754,1.973,4.884,4.884,0,0,1-2.59.691,4.953,4.953,0,0,1-2.578-.668,4.554,4.554,0,0,1-1.754-1.91,6.515,6.515,0,0,1-.66-2.852v-.641a6.737,6.737,0,0,1,.613-2.949,4.55,4.55,0,0,1,1.758-1.973,5.2,5.2,0,0,1,5.184-.008,4.632,4.632,0,0,1,1.762,1.957,6.544,6.544,0,0,1,.637,2.91Zm-2.789-.477a4.783,4.783,0,0,0-.566-2.574,1.817,1.817,0,0,0-1.621-.879q-2.062,0-2.18,3.094l-.008.836a4.92,4.92,0,0,0,.555,2.57,1.814,1.814,0,0,0,1.648.9,1.792,1.792,0,0,0,1.6-.883,4.785,4.785,0,0,0,.57-2.539Z" transform="translate(811.592 23798)" fill="#12263f"/>
    <path id="Trazado_142509" data-name="Trazado 142509" d="M28,0h96a28,28,0,0,1,28,28v93a28,28,0,0,1-28,28H28A28,28,0,0,1,0,121V28A28,28,0,0,1,28,0Z" transform="translate(735.592 23487)" fill="#bcafe3"/>
    <path id="Trazado_142510" data-name="Trazado 142510" d="M-28.56-12.8l2.856,8.9,2.848-8.9H-18.8V0h-3.094V-2.988l.3-6.117L-24.684,0h-2.039l-3.1-9.114.3,6.126V0h-3.085V-12.8ZM-8.9-5.432H-13.75v3.059h5.73V0h-8.815V-12.8H-8v2.382H-13.75v2.7H-8.9ZM-6.763,0V-12.8h4.122a6.064,6.064,0,0,1,3.05.769A5.406,5.406,0,0,1,2.522-9.857a6.554,6.554,0,0,1,.769,3.142v.589a6.592,6.592,0,0,1-.743,3.151A5.429,5.429,0,0,1,.457-.8a5.93,5.93,0,0,1-3.01.8Zm3.085-10.415v8.042h1.072A2.4,2.4,0,0,0-.567-3.318,4.63,4.63,0,0,0,.145-6.126V-6.68A4.592,4.592,0,0,0-.567-9.475a2.442,2.442,0,0,0-2.074-.94ZM8.161,0H5.084V-12.8H8.161Zm12.5-4.333a4.673,4.673,0,0,1-.721,2.36,4.35,4.35,0,0,1-1.85,1.586,6.3,6.3,0,0,1-2.72.563A5.025,5.025,0,0,1,11.4-1.468a6.786,6.786,0,0,1-1.45-4.641v-.633a7.746,7.746,0,0,1,.655-3.292,4.961,4.961,0,0,1,1.885-2.18,5.26,5.26,0,0,1,2.848-.769,5.516,5.516,0,0,1,3.744,1.226,4.844,4.844,0,0,1,1.608,3.379H17.609a2.292,2.292,0,0,0-.589-1.679,2.422,2.422,0,0,0-1.687-.51,1.843,1.843,0,0,0-1.687.861,5.536,5.536,0,0,0-.562,2.751v.905A6.126,6.126,0,0,0,13.6-3.12a1.882,1.882,0,0,0,1.771.879,2.369,2.369,0,0,0,1.626-.5,2.126,2.126,0,0,0,.6-1.591Zm12.3-1.8a7.546,7.546,0,0,1-.694,3.313A5.132,5.132,0,0,1,30.287-.6a5.494,5.494,0,0,1-2.914.778,5.572,5.572,0,0,1-2.9-.751A5.123,5.123,0,0,1,22.5-2.725a7.329,7.329,0,0,1-.743-3.208v-.721a7.58,7.58,0,0,1,.69-3.318,5.119,5.119,0,0,1,1.978-2.219,5.533,5.533,0,0,1,2.931-.782,5.479,5.479,0,0,1,2.9.773A5.211,5.211,0,0,1,32.238-10a7.362,7.362,0,0,1,.716,3.274Zm-3.138-.536a5.381,5.381,0,0,0-.637-2.9,2.044,2.044,0,0,0-1.824-.989q-2.32,0-2.452,3.48l-.009.94a5.535,5.535,0,0,0,.624,2.892,2.041,2.041,0,0,0,1.854,1.011,2.016,2.016,0,0,0,1.8-.993,5.383,5.383,0,0,0,.642-2.856ZM-27.962,23.418a4.96,4.96,0,0,1-2.083,1.274,8.984,8.984,0,0,1-3.006.483,5.36,5.36,0,0,1-4.017-1.538,6.226,6.226,0,0,1-1.608-4.28l-.009-1.107a7.637,7.637,0,0,1,.668-3.3,4.96,4.96,0,0,1,1.912-2.171,5.407,5.407,0,0,1,2.878-.76,5.669,5.669,0,0,1,3.713,1.094,4.637,4.637,0,0,1,1.542,3.265h-2.971a2.426,2.426,0,0,0-.686-1.529,2.212,2.212,0,0,0-1.494-.457,2.013,2.013,0,0,0-1.793.984,5.256,5.256,0,0,0-.642,2.813v.773A5.145,5.145,0,0,0-34.9,21.84a2.316,2.316,0,0,0,2.061.962,2.592,2.592,0,0,0,1.793-.536V20.28h-2.145V18.162h5.229Zm9.729-3.85h-4.852v3.059h5.73V25h-8.815V12.2h8.833v2.382h-5.748v2.7h4.852ZM-5.41,25H-8.477l-4.535-7.963V25H-16.1V12.2h3.085l4.526,7.963V12.2H-5.41Zm9.888-5.432H-.374v3.059h5.73V25H-3.458V12.2H5.375v2.382H-.374v2.7H4.478Zm6.891.905H9.7V25H6.614V12.2H11.65a5.621,5.621,0,0,1,3.56,1.01,3.421,3.421,0,0,1,1.283,2.853,4.155,4.155,0,0,1-.541,2.213A3.837,3.837,0,0,1,14.26,19.7l2.672,5.167V25h-3.3ZM9.7,18.1H11.65a1.751,1.751,0,0,0,1.323-.463,1.788,1.788,0,0,0,.444-1.291,1.809,1.809,0,0,0-.448-1.3,1.735,1.735,0,0,0-1.318-.471H9.7Zm15.926,4.509H21.4L20.659,25h-3.3l4.693-12.8h2.9L29.685,25H26.372Zm-3.489-2.382h2.751l-1.38-4.438Zm11.566,2.4h5.37V25H30.617V12.2H33.7Z" transform="translate(812.592 23561)" fill="#12263f"/>
    <path id="Trazado_142511" data-name="Trazado 142511" d="M28,0h96a28,28,0,0,1,28,28v93a28,28,0,0,1-28,28H28A28,28,0,0,1,0,121V28A28,28,0,0,1,28,0Z" transform="translate(964.592 23886)" fill="#00bcd4"/>
    <path id="Trazado_142512" data-name="Trazado 142512" d="M28,0h96a28,28,0,0,1,28,28v93a28,28,0,0,1-28,28H28A28,28,0,0,1,0,121V28A28,28,0,0,1,28,0Z" transform="translate(506.592 23886)" fill="#81d4fa"/>
    <path id="Trazado_142513" data-name="Trazado 142513" d="M-28.56-12.8l2.856,8.9,2.848-8.9H-18.8V0h-3.094V-2.988l.3-6.117L-24.684,0h-2.039l-3.1-9.114.3,6.126V0h-3.085V-12.8ZM-8.9-5.432H-13.75v3.059h5.73V0h-8.815V-12.8H-8v2.382H-13.75v2.7H-8.9Zm-2.874-10.793h3.129l-2.443,2.76-2.417,0ZM-6.763,0V-12.8h4.122a6.064,6.064,0,0,1,3.05.769A5.406,5.406,0,0,1,2.522-9.857a6.554,6.554,0,0,1,.769,3.142v.589a6.592,6.592,0,0,1-.743,3.151A5.429,5.429,0,0,1,.457-.8a5.93,5.93,0,0,1-3.01.8Zm3.085-10.415v8.042h1.072A2.4,2.4,0,0,0-.567-3.318,4.63,4.63,0,0,0,.145-6.126V-6.68A4.592,4.592,0,0,0-.567-9.475a2.442,2.442,0,0,0-2.074-.94ZM8.161,0H5.084V-12.8H8.161Zm12.5-4.333a4.673,4.673,0,0,1-.721,2.36,4.35,4.35,0,0,1-1.85,1.586,6.3,6.3,0,0,1-2.72.563A5.025,5.025,0,0,1,11.4-1.468a6.786,6.786,0,0,1-1.45-4.641v-.633a7.746,7.746,0,0,1,.655-3.292,4.961,4.961,0,0,1,1.885-2.18,5.26,5.26,0,0,1,2.848-.769,5.516,5.516,0,0,1,3.744,1.226,4.844,4.844,0,0,1,1.608,3.379H17.609a2.292,2.292,0,0,0-.589-1.679,2.422,2.422,0,0,0-1.687-.51,1.843,1.843,0,0,0-1.687.861,5.536,5.536,0,0,0-.562,2.751v.905A6.126,6.126,0,0,0,13.6-3.12a1.882,1.882,0,0,0,1.771.879,2.369,2.369,0,0,0,1.626-.5,2.126,2.126,0,0,0,.6-1.591Zm12.3-1.8a7.546,7.546,0,0,1-.694,3.313A5.132,5.132,0,0,1,30.287-.6a5.494,5.494,0,0,1-2.914.778,5.572,5.572,0,0,1-2.9-.751A5.123,5.123,0,0,1,22.5-2.725a7.329,7.329,0,0,1-.743-3.208v-.721a7.58,7.58,0,0,1,.69-3.318,5.119,5.119,0,0,1,1.978-2.219,5.533,5.533,0,0,1,2.931-.782,5.479,5.479,0,0,1,2.9.773A5.211,5.211,0,0,1,32.238-10a7.362,7.362,0,0,1,.716,3.274Zm-3.138-.536a5.381,5.381,0,0,0-.637-2.9,2.044,2.044,0,0,0-1.824-.989q-2.32,0-2.452,3.48l-.009.94a5.535,5.535,0,0,0,.624,2.892,2.041,2.041,0,0,0,1.854,1.011,2.016,2.016,0,0,0,1.8-.993,5.383,5.383,0,0,0,.642-2.856ZM-52,19.568h-4.852v3.059h5.73V25h-8.815V12.2H-51.1v2.382h-5.748v2.7H-52Zm8.736,2.03a1.268,1.268,0,0,0-.479-1.055,5.954,5.954,0,0,0-1.683-.782,16.147,16.147,0,0,1-1.969-.782q-2.487-1.222-2.487-3.357a3.011,3.011,0,0,1,.62-1.876A4.008,4.008,0,0,1-47.5,12.48a6.823,6.823,0,0,1,2.549-.453,5.969,5.969,0,0,1,2.474.492,3.917,3.917,0,0,1,1.7,1.4A3.661,3.661,0,0,1-40.175,16h-3.076a1.547,1.547,0,0,0-.479-1.213,1.867,1.867,0,0,0-1.3-.431,2.106,2.106,0,0,0-1.305.365,1.119,1.119,0,0,0-.479.927,1.127,1.127,0,0,0,.527.892,6.65,6.65,0,0,0,1.854.826,11.36,11.36,0,0,1,2.18.918,3.663,3.663,0,0,1,2.074,3.3,3.125,3.125,0,0,1-1.266,2.637,5.629,5.629,0,0,1-3.472.958,6.888,6.888,0,0,1-2.817-.558,4.247,4.247,0,0,1-1.9-1.529,3.985,3.985,0,0,1-.637-2.237h3.094a1.963,1.963,0,0,0,.532,1.516,2.513,2.513,0,0,0,1.727.488,1.985,1.985,0,0,0,1.208-.33A1.088,1.088,0,0,0-43.26,21.6Zm7.752-.94V25h-3.085V12.2h5.106a5.948,5.948,0,0,1,2.6.541,4.074,4.074,0,0,1,1.749,1.538,4.2,4.2,0,0,1,.62,2.263,3.7,3.7,0,0,1-1.34,2.993,5.561,5.561,0,0,1-3.678,1.121Zm0-2.382h2.021a1.906,1.906,0,0,0,1.367-.448,1.665,1.665,0,0,0,.47-1.266,2.059,2.059,0,0,0-.483-1.433,1.712,1.712,0,0,0-1.318-.545h-2.057Zm16.567,1.292h-4.852v3.059h5.73V25h-8.815V12.2h8.833v2.382h-5.748v2.7h4.852Zm12.489,1.1a4.673,4.673,0,0,1-.721,2.36,4.35,4.35,0,0,1-1.85,1.586,6.3,6.3,0,0,1-2.72.563,5.025,5.025,0,0,1-3.973-1.644,6.786,6.786,0,0,1-1.45-4.641v-.633a7.746,7.746,0,0,1,.655-3.292,4.961,4.961,0,0,1,1.885-2.18,5.26,5.26,0,0,1,2.848-.769,5.516,5.516,0,0,1,3.744,1.226,4.844,4.844,0,0,1,1.608,3.379H-9.5a2.292,2.292,0,0,0-.589-1.679,2.422,2.422,0,0,0-1.687-.51,1.843,1.843,0,0,0-1.687.861,5.536,5.536,0,0,0-.562,2.751v.905a6.126,6.126,0,0,0,.514,2.927,1.882,1.882,0,0,0,1.771.879,2.369,2.369,0,0,0,1.626-.5,2.126,2.126,0,0,0,.6-1.591ZM-1.705,25H-4.781V12.2h3.076Zm9.571-2.391H3.639L2.9,25H-.4L4.3,12.2H7.2L11.927,25H8.613ZM4.377,20.228H7.128l-1.38-4.438Zm11.566,2.4h5.37V25H12.858V12.2h3.085ZM25.9,25H22.825V12.2H25.9Zm8.745-3.4a1.268,1.268,0,0,0-.479-1.055,5.954,5.954,0,0,0-1.683-.782,16.147,16.147,0,0,1-1.969-.782q-2.487-1.222-2.487-3.357a3.011,3.011,0,0,1,.62-1.876A4.008,4.008,0,0,1,30.4,12.48a6.823,6.823,0,0,1,2.549-.453,5.969,5.969,0,0,1,2.474.492,3.917,3.917,0,0,1,1.7,1.4A3.661,3.661,0,0,1,37.731,16H34.655a1.547,1.547,0,0,0-.479-1.213,1.867,1.867,0,0,0-1.3-.431,2.106,2.106,0,0,0-1.305.365,1.074,1.074,0,0,0,.048,1.819,6.65,6.65,0,0,0,1.854.826,11.36,11.36,0,0,1,2.18.918,3.663,3.663,0,0,1,2.074,3.3,3.125,3.125,0,0,1-1.266,2.637,5.629,5.629,0,0,1-3.472.958,6.888,6.888,0,0,1-2.817-.558,4.247,4.247,0,0,1-1.9-1.529,3.985,3.985,0,0,1-.637-2.237h3.094a1.963,1.963,0,0,0,.532,1.516,2.513,2.513,0,0,0,1.727.488,1.985,1.985,0,0,0,1.208-.33A1.088,1.088,0,0,0,34.646,21.6Zm14.713-7.014H45.519V25H42.434V14.585H38.663V12.2h10.7Zm7.515,8.024H52.646L51.908,25h-3.3l4.693-12.8h2.9L60.935,25H57.621Zm-3.489-2.382h2.751l-1.38-4.438Z" transform="translate(579.592 23954)" fill="#12263f"/>
    <path id="Trazado_142514" data-name="Trazado 142514" d="M-43.242,0h-3.076V-12.8h3.076Zm5.229-4.342V0H-41.1V-12.8h5.106a5.948,5.948,0,0,1,2.6.541,4.074,4.074,0,0,1,1.749,1.538,4.2,4.2,0,0,1,.62,2.263,3.7,3.7,0,0,1-1.34,2.993,5.561,5.561,0,0,1-3.678,1.121Zm0-2.382h2.021a1.906,1.906,0,0,0,1.367-.448,1.665,1.665,0,0,0,.47-1.266,2.059,2.059,0,0,0-.483-1.433,1.712,1.712,0,0,0-1.318-.545h-2.057ZM-22.781-3.4a1.268,1.268,0,0,0-.479-1.055,5.954,5.954,0,0,0-1.683-.782,16.147,16.147,0,0,1-1.969-.782Q-29.4-7.242-29.4-9.378a3.011,3.011,0,0,1,.62-1.876,4.008,4.008,0,0,1,1.753-1.266,6.823,6.823,0,0,1,2.549-.453A5.969,5.969,0,0,1-22-12.48a3.917,3.917,0,0,1,1.7,1.4A3.661,3.661,0,0,1-19.7-9h-3.076a1.547,1.547,0,0,0-.479-1.213,1.867,1.867,0,0,0-1.3-.431,2.106,2.106,0,0,0-1.305.365,1.119,1.119,0,0,0-.479.927,1.127,1.127,0,0,0,.527.892,6.65,6.65,0,0,0,1.854.826,11.36,11.36,0,0,1,2.18.918,3.663,3.663,0,0,1,2.074,3.3A3.125,3.125,0,0,1-20.962-.782a5.629,5.629,0,0,1-3.472.958A6.888,6.888,0,0,1-27.25-.382a4.247,4.247,0,0,1-1.9-1.529,3.985,3.985,0,0,1-.637-2.237h3.094a1.963,1.963,0,0,0,.532,1.516,2.513,2.513,0,0,0,1.727.488,1.985,1.985,0,0,0,1.208-.33A1.088,1.088,0,0,0-22.781-3.4Zm13.2-9.4,2.856,8.9,2.848-8.9H.185V0H-2.909V-2.988l.3-6.117L-5.7,0H-7.743l-3.1-9.114.3,6.126V0h-3.085V-12.8ZM9.571-2.391H5.344L4.605,0H1.31L6-12.8H8.9L13.632,0H10.318ZM6.082-4.772H8.833L7.453-9.211ZM17.93-7.242,20.285-12.8h3.331L19.494-4.6V0H16.365V-4.6l-4.113-8.2h3.313Zm17.2,1.107a7.546,7.546,0,0,1-.694,3.313A5.132,5.132,0,0,1,32.462-.6a5.494,5.494,0,0,1-2.914.778,5.572,5.572,0,0,1-2.9-.751,5.123,5.123,0,0,1-1.973-2.149,7.329,7.329,0,0,1-.743-3.208v-.721a7.58,7.58,0,0,1,.69-3.318A5.119,5.119,0,0,1,26.6-12.19a5.533,5.533,0,0,1,2.931-.782,5.479,5.479,0,0,1,2.9.773A5.211,5.211,0,0,1,34.414-10a7.362,7.362,0,0,1,.716,3.274Zm-3.138-.536a5.381,5.381,0,0,0-.637-2.9,2.044,2.044,0,0,0-1.824-.989q-2.32,0-2.452,3.48l-.009.94a5.535,5.535,0,0,0,.624,2.892,2.041,2.041,0,0,0,1.854,1.011,2.016,2.016,0,0,0,1.8-.993,5.383,5.383,0,0,0,.642-2.856Zm9.483,2.145h-1.67V0H36.721V-12.8h5.036a5.621,5.621,0,0,1,3.56,1.01A3.421,3.421,0,0,1,46.6-8.934a4.155,4.155,0,0,1-.541,2.213A3.837,3.837,0,0,1,44.367-5.3L47.039-.132V0h-3.3ZM39.806-6.9h1.951a1.751,1.751,0,0,0,1.323-.463,1.788,1.788,0,0,0,.444-1.291,1.809,1.809,0,0,0-.448-1.3,1.735,1.735,0,0,0-1.318-.471H39.806ZM-26.336,25H-29.4l-4.535-7.963V25h-3.085V12.2h3.085l4.526,7.963V12.2h3.076Zm5.238,0h-3.076V12.2H-21.1Zm7.11-3.48,2.549-9.316h3.445L-12.3,25h-3.375l-4.271-12.8h3.419ZM.875,19.568H-3.977v3.059h5.73V25H-7.062V12.2H1.771v2.382H-3.977v2.7H.875ZM6.1,22.627h5.37V25H3.01V12.2H6.1ZM17.249,25V12.2h4.122a6.064,6.064,0,0,1,3.05.769,5.406,5.406,0,0,1,2.114,2.171,6.554,6.554,0,0,1,.769,3.142v.589a6.592,6.592,0,0,1-.743,3.151,5.429,5.429,0,0,1-2.092,2.18,5.93,5.93,0,0,1-3.01.8Zm3.085-10.415v8.042h1.072a2.4,2.4,0,0,0,2.039-.945,4.63,4.63,0,0,0,.712-2.808V18.32a4.592,4.592,0,0,0-.712-2.795,2.442,2.442,0,0,0-2.074-.94Zm16.488,4.983H31.97v3.059H37.7V25H28.885V12.2h8.833v2.382H31.97v2.7h4.852Zm-86.73,26.1a4.673,4.673,0,0,1-.721,2.36,4.35,4.35,0,0,1-1.85,1.586,6.3,6.3,0,0,1-2.72.563,5.025,5.025,0,0,1-3.973-1.644,6.786,6.786,0,0,1-1.45-4.641v-.633a7.746,7.746,0,0,1,.655-3.292,4.961,4.961,0,0,1,1.885-2.18,5.26,5.26,0,0,1,2.848-.769,5.516,5.516,0,0,1,3.744,1.226,4.844,4.844,0,0,1,1.608,3.379h-3.076a2.292,2.292,0,0,0-.589-1.679,2.422,2.422,0,0,0-1.687-.51,1.843,1.843,0,0,0-1.687.861,5.536,5.536,0,0,0-.562,2.751v.905a6.126,6.126,0,0,0,.514,2.927,1.882,1.882,0,0,0,1.771.879,2.369,2.369,0,0,0,1.626-.5,2.126,2.126,0,0,0,.6-1.591Zm12.3-1.8a7.546,7.546,0,0,1-.694,3.313A5.132,5.132,0,0,1-40.28,49.4a5.494,5.494,0,0,1-2.914.778,5.572,5.572,0,0,1-2.9-.751,5.123,5.123,0,0,1-1.973-2.149,7.329,7.329,0,0,1-.743-3.208v-.721a7.58,7.58,0,0,1,.69-3.318,5.119,5.119,0,0,1,1.978-2.219,5.533,5.533,0,0,1,2.931-.782,5.479,5.479,0,0,1,2.9.773A5.211,5.211,0,0,1-38.329,40a7.362,7.362,0,0,1,.716,3.274Zm-3.138-.536a5.381,5.381,0,0,0-.637-2.9,2.044,2.044,0,0,0-1.824-.989q-2.32,0-2.452,3.48l-.009.94a5.535,5.535,0,0,0,.624,2.892,2.041,2.041,0,0,0,1.854,1.011,2.016,2.016,0,0,0,1.8-.993,5.383,5.383,0,0,0,.642-2.856Zm8.78-6.126,2.856,8.9,2.848-8.9h4.061V50H-25.3V47.012l.3-6.117L-28.094,50h-2.039l-3.1-9.114.3,6.126V50h-3.085V37.2Zm14.81,8.455V50h-3.085V37.2h5.106a5.948,5.948,0,0,1,2.6.541,4.074,4.074,0,0,1,1.749,1.538,4.2,4.2,0,0,1,.62,2.263,3.7,3.7,0,0,1-1.34,2.993,5.561,5.561,0,0,1-3.678,1.121Zm0-2.382h2.021a1.906,1.906,0,0,0,1.367-.448,1.665,1.665,0,0,0,.47-1.266,2.059,2.059,0,0,0-.483-1.433,1.712,1.712,0,0,0-1.318-.545h-2.057Zm11.716,4.351h5.37V50H-8.53V37.2h3.085ZM9.163,44.568H4.311v3.059h5.73V50H1.226V37.2h8.833v2.382H4.311v2.7H9.163ZM16.4,37.2h3.076v8.78a4.2,4.2,0,0,1-.567,2.18,3.87,3.87,0,0,1-1.582,1.485,4.835,4.835,0,0,1-2.263.527,4.661,4.661,0,0,1-3.252-1.055,3.833,3.833,0,0,1-1.16-2.988h3.094a2.113,2.113,0,0,0,.3,1.274,1.2,1.2,0,0,0,1.015.4,1.148,1.148,0,0,0,.989-.479,2.251,2.251,0,0,0,.347-1.34ZM24.7,50H21.625V37.2H24.7Zm2.145,0V37.2h4.122a6.064,6.064,0,0,1,3.05.769,5.406,5.406,0,0,1,2.114,2.171,6.554,6.554,0,0,1,.769,3.142v.589a6.592,6.592,0,0,1-.743,3.151,5.429,5.429,0,0,1-2.092,2.18,5.93,5.93,0,0,1-3.01.8Zm3.085-10.415v8.042H31a2.4,2.4,0,0,0,2.039-.945,4.63,4.63,0,0,0,.712-2.808V43.32a4.592,4.592,0,0,0-.712-2.795,2.442,2.442,0,0,0-2.074-.94Zm15.636,8.024H41.339L40.6,50h-3.3L42,37.2h2.9L49.627,50H46.314Zm-3.489-2.382h2.751l-1.38-4.438ZM50.559,50V37.2h4.122a6.064,6.064,0,0,1,3.05.769,5.406,5.406,0,0,1,2.114,2.171,6.554,6.554,0,0,1,.769,3.142v.589a6.592,6.592,0,0,1-.743,3.151,5.429,5.429,0,0,1-2.092,2.18,5.93,5.93,0,0,1-3.01.8Zm3.085-10.415v8.042h1.072a2.4,2.4,0,0,0,2.039-.945,4.63,4.63,0,0,0,.712-2.808V43.32a4.592,4.592,0,0,0-.712-2.795,2.442,2.442,0,0,0-2.074-.94Z" transform="translate(1039.592 23940)" fill="#12263f"/>
    <path id="Trazado_142501" data-name="Trazado 142501" d="M0,0H820V548H0Z" transform="translate(390 23487)" fill="none"/>
  </g>
</svg>
